<mxfile host="Electron" modified="2024-07-24T17:34:31.106Z" agent="Mozilla/5.0 (Windows NT 10.0; Win64; x64) AppleWebKit/537.36 (KHTML, like Gecko) draw.io/24.2.5 Chrome/120.0.6099.109 Electron/28.1.0 Safari/537.36" etag="svDceoeIomFWgfFmklas" version="24.2.5" type="device">
  <diagram id="C5RBs43oDa-KdzZeNtuy" name="Page-1">
    <mxGraphModel dx="2117" dy="629" grid="1" gridSize="10" guides="1" tooltips="1" connect="1" arrows="1" fold="1" page="1" pageScale="1" pageWidth="827" pageHeight="1169" math="0" shadow="0">
      <root>
        <mxCell id="WIyWlLk6GJQsqaUBKTNV-0" />
        <mxCell id="WIyWlLk6GJQsqaUBKTNV-1" parent="WIyWlLk6GJQsqaUBKTNV-0" />
        <mxCell id="_HgUgdJfW5JQh9bYfpNO-8" value="cert-expiration" style="swimlane;whiteSpace=wrap;html=1;container=0;" vertex="1" parent="WIyWlLk6GJQsqaUBKTNV-1">
          <mxGeometry x="-40" y="470" width="820" height="230" as="geometry" />
        </mxCell>
        <mxCell id="_HgUgdJfW5JQh9bYfpNO-10" value="uses" style="text;html=1;align=center;verticalAlign=middle;whiteSpace=wrap;rounded=0;container=0;" vertex="1" parent="_HgUgdJfW5JQh9bYfpNO-8">
          <mxGeometry x="250" y="85" width="60" height="30" as="geometry" />
        </mxCell>
        <mxCell id="_HgUgdJfW5JQh9bYfpNO-11" value="uses" style="text;html=1;align=center;verticalAlign=middle;whiteSpace=wrap;rounded=0;container=0;" vertex="1" parent="_HgUgdJfW5JQh9bYfpNO-8">
          <mxGeometry x="500" y="60" width="60" height="30" as="geometry" />
        </mxCell>
        <mxCell id="_HgUgdJfW5JQh9bYfpNO-12" value="uses" style="text;html=1;align=center;verticalAlign=middle;whiteSpace=wrap;rounded=0;container=0;" vertex="1" parent="_HgUgdJfW5JQh9bYfpNO-8">
          <mxGeometry x="510" y="150" width="60" height="30" as="geometry" />
        </mxCell>
        <mxCell id="_HgUgdJfW5JQh9bYfpNO-1" value="LoopController" style="rounded=0;whiteSpace=wrap;html=1;fillColor=#D4E1F5;container=0;" vertex="1" parent="WIyWlLk6GJQsqaUBKTNV-1">
          <mxGeometry x="575" y="510" width="120" height="60" as="geometry" />
        </mxCell>
        <mxCell id="_HgUgdJfW5JQh9bYfpNO-2" value="CertExpirationConfiguration" style="rounded=0;whiteSpace=wrap;html=1;fillColor=#D4E1F5;container=0;" vertex="1" parent="WIyWlLk6GJQsqaUBKTNV-1">
          <mxGeometry x="550" y="600" width="170" height="60" as="geometry" />
        </mxCell>
        <mxCell id="_HgUgdJfW5JQh9bYfpNO-5" style="edgeStyle=orthogonalEdgeStyle;rounded=0;orthogonalLoop=1;jettySize=auto;html=1;noEdgeStyle=1;orthogonal=1;" edge="1" parent="WIyWlLk6GJQsqaUBKTNV-1" source="_HgUgdJfW5JQh9bYfpNO-3" target="_HgUgdJfW5JQh9bYfpNO-4">
          <mxGeometry relative="1" as="geometry">
            <Array as="points">
              <mxPoint x="212" y="585" />
              <mxPoint x="288" y="585" />
            </Array>
          </mxGeometry>
        </mxCell>
        <mxCell id="_HgUgdJfW5JQh9bYfpNO-3" value="CertExpirationConsumerWrapper" style="rounded=0;whiteSpace=wrap;html=1;fillColor=#D4E1F5;container=0;" vertex="1" parent="WIyWlLk6GJQsqaUBKTNV-1">
          <mxGeometry y="555" width="200" height="60" as="geometry" />
        </mxCell>
        <mxCell id="_HgUgdJfW5JQh9bYfpNO-6" style="edgeStyle=orthogonalEdgeStyle;rounded=0;orthogonalLoop=1;jettySize=auto;html=1;noEdgeStyle=1;orthogonal=1;" edge="1" parent="WIyWlLk6GJQsqaUBKTNV-1" source="_HgUgdJfW5JQh9bYfpNO-4" target="_HgUgdJfW5JQh9bYfpNO-1">
          <mxGeometry relative="1" as="geometry">
            <Array as="points">
              <mxPoint x="462" y="572.5" />
              <mxPoint x="538" y="540" />
            </Array>
          </mxGeometry>
        </mxCell>
        <mxCell id="_HgUgdJfW5JQh9bYfpNO-7" style="edgeStyle=orthogonalEdgeStyle;rounded=0;orthogonalLoop=1;jettySize=auto;html=1;noEdgeStyle=1;orthogonal=1;" edge="1" parent="WIyWlLk6GJQsqaUBKTNV-1" source="_HgUgdJfW5JQh9bYfpNO-4" target="_HgUgdJfW5JQh9bYfpNO-2">
          <mxGeometry relative="1" as="geometry">
            <Array as="points">
              <mxPoint x="462" y="597.5" />
              <mxPoint x="538" y="630" />
            </Array>
          </mxGeometry>
        </mxCell>
        <mxCell id="_HgUgdJfW5JQh9bYfpNO-4" value="CertExpirationConsumer" style="rounded=0;whiteSpace=wrap;html=1;fillColor=#D4E1F5;container=0;" vertex="1" parent="WIyWlLk6GJQsqaUBKTNV-1">
          <mxGeometry x="300" y="555" width="150" height="60" as="geometry" />
        </mxCell>
      </root>
    </mxGraphModel>
  </diagram>
</mxfile>
